<svg xmlns="http://www.w3.org/2000/svg" xmlns:xlink="http://www.w3.org/1999/xlink" width="360" height="15" viewBox="0 0 360 15">
  <defs>
    <clipPath id="clip-Artboard_11">
      <rect width="360" height="15"/>
    </clipPath>
  </defs>
  <g id="Artboard_11" data-name="Artboard – 11" clip-path="url(#clip-Artboard_11)">
    <rect width="360" height="15" fill="rgba(255,255,255,0)"/>
    <path id="Path_227" data-name="Path 227" d="M2080,3455h360v15h-5s-2.5-5-5-5-5,5-5,5h-5s-2.5-5-5-5-5,5-5,5h-5s-2.5-5-5-5-5,5-5,5h-5s-2.5-5-5-5-5,5-5,5h-5s-2.5-5-5-5-5,5-5,5h-5s-2.5-5-5-5-5,5-5,5h-5s-2.5-5-5-5-5,5-5,5h-5s-2.5-5-5-5-5,5-5,5h-5s-2.5-5-5-5-5,5-5,5h-5s-2.5-5-5-5-5,5-5,5h-5s-2.5-5-5-5-5,5-5,5h-5s-2.5-5-5-5-5,5-5,5h-5s-2.5-5-5-5-5,5-5,5h-5s-2.5-5-5-5-5,5-5,5h-5s-2.5-5-5-5-5,5-5,5h-5s-2.5-5-5-5-5,5-5,5h-5s-2.5-5-5-5-5,5-5,5h-5s-2.5-5-5-5-5,5-5,5h-4.418s-2.672-5-5.582-5-6.057,5-6.057,5h-4.269s-2.414-5-4.674-5-4.367,5-4.367,5h-4.32s-3.481-5-6.313-5-5.013,5-5.013,5h-4.659s-2.913-5-5.328-5-4.331,5-4.331,5h-5s-3.1-5-5.671-5-4.6,5-4.6,5H2090.1s-2.576-5-5.1-5-5,5-5,5Z" transform="translate(-2080 -3455)" fill="#5762ab" stroke="#5762ab" stroke-width="1"/>
  </g>
</svg>
