<svg xmlns="http://www.w3.org/2000/svg" xmlns:xlink="http://www.w3.org/1999/xlink" width="20" height="15" viewBox="0 0 20 15">
  <defs>
    <linearGradient id="linear-gradient" x1="0.5" x2="0.5" y2="1" gradientUnits="objectBoundingBox">
      <stop offset="0" stop-color="#f28f59"/>
      <stop offset="1" stop-color="#d7672b"/>
    </linearGradient>
    <clipPath id="clip-Artboard_6">
      <rect width="20" height="15"/>
    </clipPath>
  </defs>
  <g id="Artboard_6" data-name="Artboard – 6" clip-path="url(#clip-Artboard_6)">
    <rect width="20" height="15" fill="rgba(255,255,255,0)"/>
    <g id="monetization_on-black-18dp" transform="translate(0 1.5)">
      <path id="Path_211" data-name="Path 211" d="M0,0H20V13H0Z" fill="none"/>
      <path id="Path_212" data-name="Path 212" d="M10,2A7.765,7.765,0,0,0,2,9.5,7.765,7.765,0,0,0,10,17a7.765,7.765,0,0,0,8-7.5A7.765,7.765,0,0,0,10,2Zm1.128,12.068V15.5H8.992V14.053A2.88,2.88,0,0,1,6.376,11.5H7.944c.08.787.656,1.4,2.12,1.4,1.568,0,1.92-.735,1.92-1.193,0-.622-.352-1.207-2.136-1.6C7.864,9.658,6.5,8.893,6.5,7.355c0-1.29,1.112-2.13,2.488-2.408V3.5h2.136V4.962a2.7,2.7,0,0,1,2.28,2.543H11.84c-.04-.832-.512-1.4-1.776-1.4-1.2,0-1.92.51-1.92,1.23,0,.63.52,1.043,2.136,1.433s3.344,1.043,3.344,2.932c-.008,1.373-1.1,2.123-2.5,2.37Z" transform="translate(0 -3.5)" fill="url(#linear-gradient)"/>
    </g>
  </g>
</svg>
