<?xml version="1.0" encoding="iso-8859-1"?>
<!-- Generator: Adobe Illustrator 19.0.0, SVG Export Plug-In . SVG Version: 6.00 Build 0)  -->
<svg version="1.1" id="Layer_1" xmlns="http://www.w3.org/2000/svg" xmlns:xlink="http://www.w3.org/1999/xlink" x="0px" y="0px"
	 viewBox="0 0 512 512" style="enable-background:new 0 0 512 512;" xml:space="preserve">
<path style="fill:#EBEBEC;" d="M511.999,226.947l-44.764-44.764c5.454-16.884,6.704-34.823,3.594-52.516
	c-3.89-22.131-14.369-42.252-30.307-58.19c-15.938-15.938-36.059-26.417-58.19-30.307c-17.693-3.11-35.632-1.859-52.516,3.594
	L285.053,0L0.001,285.053l44.764,44.764c-5.453,16.884-6.704,34.823-3.594,52.516c3.89,22.131,14.369,42.252,30.307,58.19
	c15.938,15.938,36.059,26.417,58.19,30.307c17.694,3.109,35.632,1.859,52.516-3.594L226.948,512L511.999,226.947z"/>
<path style="fill:#DBDADD;" d="M511.999,226.947l-44.764-44.764c5.454-16.884,6.704-34.823,3.594-52.516
	c-3.89-22.131-14.369-42.252-30.307-58.19C423.067,88.933,94.581,417.419,71.477,440.523c15.937,15.937,36.059,26.417,58.19,30.307
	c17.694,3.109,35.632,1.859,52.516-3.594L226.947,512L511.999,226.947z"/>
<g>
	
		<rect x="225.302" y="50.735" transform="matrix(0.7071 0.7071 -0.7071 0.7071 119.2254 -152.785)" style="fill:#5B5B5F;" width="37.477" height="33.58"/>
	
		<rect x="275.406" y="100.837" transform="matrix(0.7071 0.7071 -0.7071 0.7071 169.3278 -173.5391)" style="fill:#5B5B5F;" width="37.477" height="33.58"/>
	
		<rect x="325.515" y="150.96" transform="matrix(0.7071 0.7071 -0.7071 0.7071 219.4469 -194.2908)" style="fill:#5B5B5F;" width="37.477" height="33.58"/>
</g>
<g>
	
		<rect x="341.504" y="157.587" transform="matrix(0.7071 0.7071 -0.7071 0.7071 226.0719 -197.0314)" style="fill:#444242;" width="18.739" height="33.58"/>
	
		<rect x="375.624" y="201.073" transform="matrix(0.7071 0.7071 -0.7071 0.7071 269.5582 -215.0458)" style="fill:#444242;" width="37.477" height="33.58"/>
	
		<rect x="425.752" y="251.177" transform="matrix(0.7071 0.7071 -0.7071 0.7071 319.6694 -235.8165)" style="fill:#444242;" width="37.477" height="33.58"/>
</g>
<g>
	<path style="fill:#5190E3;" d="M162.874,330.677c-10.466,0-20.307-4.076-27.708-11.477l0,0c-15.278-15.279-15.278-40.138,0-55.416
		c7.402-7.402,17.242-11.478,27.708-11.478c10.467,0,20.309,4.076,27.708,11.478c7.402,7.401,11.478,17.241,11.478,27.708
		s-4.076,20.307-11.478,27.709C183.182,326.601,173.341,330.677,162.874,330.677z M158.909,295.455
		c1.429,1.429,3.098,1.643,3.965,1.643c0.868,0,2.536-0.213,3.965-1.642c1.429-1.429,1.642-3.098,1.642-3.965
		c0-0.867-0.213-2.536-1.642-3.964c-1.429-1.429-3.096-1.643-3.965-1.643c-0.867,0-2.536,0.213-3.965,1.643
		C156.724,289.712,156.724,293.269,158.909,295.455L158.909,295.455z"/>
	<path style="fill:#5190E3;" d="M280.52,328.583c-10.467,0-20.307-4.076-27.708-11.477l0,0c-0.001,0-0.001,0-0.001,0
		c-7.401-7.402-11.478-17.242-11.478-27.708c0-10.467,4.077-20.307,11.479-27.709c7.401-7.402,17.241-11.478,27.708-11.478
		c10.466,0,20.307,4.076,27.708,11.477c7.402,7.402,11.479,17.242,11.479,27.709c0,10.467-4.077,20.307-11.479,27.709
		C300.827,324.508,290.986,328.583,280.52,328.583z M280.52,283.791c-0.868,0-2.535,0.213-3.964,1.642
		c-1.43,1.429-1.644,3.098-1.644,3.965c0,0.867,0.214,2.536,1.643,3.964h0.001c1.428,1.429,3.095,1.642,3.964,1.642
		c0.867,0,2.536-0.213,3.965-1.643c1.429-1.429,1.643-3.096,1.643-3.964c0-0.867-0.214-2.536-1.643-3.965
		C283.055,284.004,281.387,283.791,280.52,283.791z"/>
</g>
<g>
	
		<rect x="138.116" y="273.596" transform="matrix(-0.1061 -0.9944 0.9944 -0.1061 -43.6267 541.5539)" style="fill:#E1744E;" width="166.986" height="33.582"/>
	<path style="fill:#E1744E;" d="M162.874,330.677c-10.466,0-20.307-4.076-27.708-11.477l0,0c-15.278-15.279-15.278-40.138,0-55.416
		c7.402-7.402,17.242-11.478,27.708-11.478c10.467,0,20.309,4.076,27.708,11.478c7.402,7.401,11.478,17.241,11.478,27.708
		s-4.076,20.307-11.478,27.709C183.182,326.601,173.341,330.677,162.874,330.677z M158.909,295.455
		c1.429,1.429,3.098,1.643,3.965,1.643c0.868,0,2.536-0.213,3.965-1.642c1.429-1.429,1.642-3.098,1.642-3.965
		c0-0.867-0.213-2.536-1.642-3.964c-1.429-1.429-3.096-1.643-3.965-1.643c-0.867,0-2.536,0.213-3.965,1.643
		C156.724,289.712,156.724,293.269,158.909,295.455L158.909,295.455z"/>
</g>
<g>
	<path style="fill:#DD5323;" d="M280.52,328.583c-10.467,0-20.307-4.076-27.708-11.477l0,0c-0.001,0-0.001,0-0.001,0
		c-7.401-7.402-11.478-17.242-11.478-27.708c0-10.467,4.077-20.307,11.479-27.709c7.401-7.402,17.241-11.478,27.708-11.478
		c10.466,0,20.307,4.076,27.708,11.477c7.402,7.402,11.479,17.242,11.479,27.709c0,10.467-4.077,20.307-11.479,27.709
		C300.827,324.508,290.986,328.583,280.52,328.583z M280.52,283.791c-0.868,0-2.535,0.213-3.964,1.642
		c-1.43,1.429-1.644,3.098-1.644,3.965c0,0.867,0.214,2.536,1.643,3.964h0.001c1.428,1.429,3.095,1.642,3.964,1.642
		c0.867,0,2.536-0.213,3.965-1.643c1.429-1.429,1.643-3.096,1.643-3.964c0-0.867-0.214-2.536-1.643-3.965
		C283.055,284.004,281.387,283.791,280.52,283.791z"/>
	<polygon style="fill:#DD5323;" points="213.788,375.173 206.369,305.631 236.883,275.117 247.177,371.611 	"/>
</g>
<g>
</g>
<g>
</g>
<g>
</g>
<g>
</g>
<g>
</g>
<g>
</g>
<g>
</g>
<g>
</g>
<g>
</g>
<g>
</g>
<g>
</g>
<g>
</g>
<g>
</g>
<g>
</g>
<g>
</g>
</svg>
