<svg width="16" height="16" viewBox="0 0 16 16" fill="none" xmlns="http://www.w3.org/2000/svg">
<path fill-rule="evenodd" clip-rule="evenodd" d="M7.67079 14.019C7.67079 14.019 7.51094 14.0196 7.25383 13.9946C6.19761 13.892 3.5 13.3575 3.5 10.5753C3.5 7.11582 7.20935 6.17233 7.20935 3.48653C7.20935 2.84657 7.05642 2.51802 6.7304 2.16592C6.68071 2.11225 6.67133 2.01647 6.67133 2.01647C6.67133 2.01647 6.75648 1.99318 6.83775 2.0021C8.69143 2.20564 10.1079 4.09147 10.1079 6.69911C10.1079 7.24005 9.90485 8.35966 9.66113 8.59553C9.42357 8.82545 11.1578 7.64687 11.2453 6.52845C11.2476 6.49949 11.2453 6.38462 11.2453 6.38462C11.2453 6.38462 11.3774 6.44603 11.4191 6.49107C11.6768 6.76967 12.5768 7.88322 12.4947 10.0218C12.4059 12.3373 10.0981 13.7934 8.71781 13.995C8.60832 14.0109 8.40843 14.019 8.40843 14.019C8.40843 14.019 8.53756 13.8925 8.5971 13.8315C9.27606 13.1357 9.52453 12.6223 9.52453 11.7997C9.52453 10.362 8.24758 10.1774 7.86089 9.25755C7.83467 9.19582 7.8156 9.13149 7.80402 9.0657C7.76732 8.82081 7.84877 8.58302 8 8.3835C8 8.3835 8.17391 8.18091 8.2497 8.07508C8.3158 7.98278 8.40843 7.77784 8.40843 7.77784C8.40843 7.77784 8.20349 7.87421 8.09056 7.95047C8.01264 8.00309 7.94949 8.06078 7.86089 8.12482C7.06515 8.6999 5.68738 9.90971 5.68738 11.2778C5.68738 12.8401 6.72963 13.4175 7.33585 13.7853C7.47767 13.8714 7.67079 14.019 7.67079 14.019Z" fill="#212121"/>
</svg>
