<svg xmlns="http://www.w3.org/2000/svg" xmlns:xlink="http://www.w3.org/1999/xlink" width="16" height="15" viewBox="0 0 16 15">
  <defs>
    <linearGradient id="linear-gradient" x1="0.5" x2="0.5" y2="1" gradientUnits="objectBoundingBox">
      <stop offset="0" stop-color="#fff"/>
      <stop offset="1" stop-color="#d4d4d4"/>
    </linearGradient>
    <clipPath id="clip-Artboard_7">
      <rect width="16" height="15"/>
    </clipPath>
  </defs>
  <g id="Artboard_7" data-name="Artboard – 7" clip-path="url(#clip-Artboard_7)">
    <rect width="16" height="15" fill="rgba(255,255,255,0)"/>
    <g id="Group_5" data-name="Group 5" transform="translate(0 15)">
      <path id="Path_215" data-name="Path 215" d="M17,9,15.225,7.007l.247-2.636-2.625-.586L11.473,1.5,9,2.543,6.527,1.5,5.153,3.779l-2.625.579L2.775,7,1,9l1.775,1.993-.247,2.643,2.625.586L6.527,16.5,9,15.45l2.473,1.043,1.375-2.279,2.625-.586-.247-2.636ZM7.611,12.371,4.847,9.65,5.924,8.593l1.687,1.664,4.255-4.193,1.076,1.057Z" transform="translate(-1 -16.5)" fill="url(#linear-gradient)"/>
    </g>
  </g>
</svg>
